<svg xmlns="http://www.w3.org/2000/svg" viewBox="0 0 600 280">
  <rect width="600" height="280" rx="18" fill="#171a21"/>
  <rect x="1" y="1" width="598" height="278" rx="17" fill="none" stroke="#2a2f3a" stroke-width="2"/>

  <g transform="translate(40,40)">
    <rect width="150" height="200" rx="14" fill="#1e222b" stroke="#2a2f3a" stroke-width="2"/>
    <circle cx="75" cy="60" r="28" fill="#3ddc97"/>
    <text x="75" y="120" font-family="Arial" font-size="16" font-weight="700" fill="#eef0f3" text-anchor="middle">REPARA</text>
    <rect x="20" y="140" width="110" height="10" rx="5" fill="#2a2f3a"/>
    <rect x="20" y="140" width="22" height="10" rx="5" fill="#3ddc97"/>
  </g>

  <g transform="translate(225,40)">
    <rect width="150" height="200" rx="14" fill="#1e222b" stroke="#2a2f3a" stroke-width="2"/>
    <circle cx="75" cy="60" r="28" fill="#f4c542"/>
    <text x="75" y="115" font-family="Arial" font-size="13" font-weight="700" fill="#eef0f3" text-anchor="middle">VALORALO</text>
    <text x="75" y="132" font-family="Arial" font-size="13" font-weight="700" fill="#eef0f3" text-anchor="middle">BIEN</text>
    <rect x="20" y="150" width="110" height="10" rx="5" fill="#2a2f3a"/>
    <rect x="20" y="150" width="60" height="10" rx="5" fill="#f4c542"/>
  </g>

  <g transform="translate(410,40)">
    <rect width="150" height="200" rx="14" fill="#1e222b" stroke="#2a2f3a" stroke-width="2"/>
    <circle cx="75" cy="60" r="28" fill="#ff5d5d"/>
    <text x="75" y="120" font-family="Arial" font-size="16" font-weight="700" fill="#eef0f3" text-anchor="middle">VENDE</text>
    <rect x="20" y="140" width="110" height="10" rx="5" fill="#2a2f3a"/>
    <rect x="20" y="140" width="95" height="10" rx="5" fill="#ff5d5d"/>
  </g>
</svg>
